<?xml version="1.0" standalone="no"?>
<!DOCTYPE svg PUBLIC "-//W3C//DTD SVG 20010904//EN"
 "http://www.w3.org/TR/2001/REC-SVG-20010904/DTD/svg10.dtd">
<svg version="1.0" xmlns="http://www.w3.org/2000/svg"
 width="2816.000000pt" height="1536.000000pt" viewBox="0 0 2816.000000 1536.000000"
 preserveAspectRatio="xMidYMid meet">

<g transform="translate(0.000000,1536.000000) scale(0.100000,-0.100000)"
fill="#000000" stroke="none">
<path d="M15627 12628 c-11 -41 -52 -149 -102 -268 -32 -74 -83 -198 -115
-275 -128 -308 -327 -739 -395 -853 -53 -88 -107 -148 -124 -137 -19 11 -69
118 -85 182 -48 184 -100 614 -90 739 7 85 2 97 -34 88 -17 -5 -22 -16 -27
-72 -25 -271 -99 -662 -151 -796 -44 -114 -66 -150 -111 -177 -115 -71 -275
29 -452 281 -60 87 -93 125 -106 125 -11 0 -21 -8 -23 -17 -2 -10 22 -94 52
-187 33 -100 69 -236 87 -333 37 -192 42 -208 47 -148 8 95 -37 340 -84 464
-8 21 -13 40 -11 42 1 2 23 -24 47 -57 63 -86 168 -181 240 -218 51 -25 76
-31 125 -31 54 0 69 4 110 33 97 66 167 232 209 497 15 91 30 185 34 210 l8
45 8 -70 c14 -121 65 -385 92 -474 46 -151 72 -185 137 -179 51 5 121 108 246
363 100 202 251 534 251 549 0 4 23 66 51 139 52 134 76 185 65 137 -20 -85
-108 -466 -121 -520 -23 -103 -63 -405 -69 -528 -8 -135 3 -183 49 -229 48
-48 82 -45 213 21 98 50 320 207 422 300 67 61 74 61 27 -1 -121 -158 -255
-397 -282 -500 -20 -78 -20 -103 4 -103 14 0 22 12 30 48 17 68 160 351 233
462 35 53 121 164 192 248 124 148 143 183 99 182 -10 -1 -79 -57 -153 -127
-122 -113 -253 -223 -425 -355 -71 -55 -258 -158 -285 -158 -29 0 -57 33 -71
82 -21 77 26 507 86 783 36 167 131 541 167 657 16 54 28 108 26 120 -3 25
-36 38 -41 16z"/>
<path d="M21664 11955 c-16 -39 -59 -212 -69 -279 -4 -23 -10 -47 -13 -53 -4
-5 -55 -28 -114 -50 -134 -51 -198 -87 -198 -113 0 -21 -10 -18 216 -74 77
-20 150 -39 161 -43 13 -5 49 -64 101 -163 110 -213 124 -212 142 10 19 232 3
205 164 272 76 31 143 61 149 67 27 27 -18 46 -310 125 -24 7 -47 16 -52 21
-5 6 -32 69 -60 141 -73 184 -89 204 -117 139z m86 -180 c22 -54 47 -109 54
-121 17 -24 114 -63 229 -90 42 -10 77 -21 77 -24 0 -4 -35 -20 -77 -35 -103
-37 -150 -61 -162 -83 -5 -10 -15 -80 -21 -157 -6 -77 -13 -141 -14 -143 -2
-1 -30 54 -64 123 -72 147 -60 139 -269 186 -76 17 -140 32 -142 34 -3 4 26
17 162 72 51 21 94 45 102 57 7 11 18 53 25 91 20 124 42 207 51 198 5 -5 27
-53 49 -108z"/>
<path d="M24472 11837 c-11 -12 -54 -67 -96 -122 -103 -136 -144 -184 -319
-373 -174 -187 -290 -294 -353 -325 -41 -20 -46 -20 -77 -5 -69 33 -97 147
-97 394 0 137 -3 174 -14 183 -23 20 -52 -18 -60 -77 -10 -76 -80 -323 -127
-447 -50 -134 -51 -136 -106 -207 -87 -114 -165 -99 -268 51 -77 113 -98 94
-67 -61 11 -57 23 -131 27 -166 4 -34 11 -64 15 -67 18 -11 22 67 8 150 -8 47
-12 85 -8 85 3 0 16 -14 29 -30 12 -17 40 -42 61 -56 34 -23 48 -26 98 -22 77
5 108 29 176 131 60 91 111 223 150 385 13 57 27 106 30 109 3 4 6 -23 6 -58
0 -74 31 -232 53 -275 8 -16 27 -40 42 -54 22 -21 36 -25 89 -25 59 0 65 2
133 53 76 56 321 303 430 433 58 69 84 96 70 72 -118 -206 -197 -395 -232
-555 -29 -130 -30 -157 -10 -225 19 -63 83 -124 153 -147 57 -19 198 -39 224
-33 32 9 20 0 -68 -49 -94 -53 -198 -135 -237 -186 -14 -18 -31 -54 -38 -80
-12 -43 -11 -49 11 -80 13 -19 42 -48 66 -64 l42 -30 -56 -29 c-77 -40 -132
-94 -132 -130 l0 -27 39 35 c21 19 70 50 107 68 59 28 80 33 143 34 59 0 76 3
85 18 18 29 -5 50 -75 67 -108 27 -169 73 -169 127 0 59 197 211 385 295 55
25 108 48 118 51 18 7 22 33 9 54 -6 10 -30 10 -114 1 -145 -16 -299 -1 -362
36 -51 30 -86 91 -86 152 0 157 207 661 372 906 40 60 57 95 53 107 -9 29 -31
32 -53 8z"/>
<path d="M6210 11788 c1 -18 11 -95 24 -170 l22 -138 -20 -19 c-12 -10 -67
-49 -123 -85 -94 -61 -118 -86 -94 -100 5 -3 73 -10 152 -16 79 -6 147 -15
152 -19 4 -4 26 -74 50 -157 57 -200 63 -200 133 -6 29 79 56 148 62 154 6 6
59 6 156 -2 81 -6 151 -8 156 -5 21 13 7 33 -96 132 l-107 103 62 151 c84 204
81 208 -94 94 -72 -46 -136 -85 -143 -85 -6 0 -69 45 -138 100 -70 55 -133
100 -140 100 -9 0 -14 -12 -14 -32z m303 -214 c12 3 66 34 120 69 53 36 97 63
97 62 0 -1 -22 -49 -49 -106 -76 -159 -78 -143 31 -239 51 -46 94 -84 96 -86
2 -1 -60 -2 -139 -1 l-142 2 -38 -114 c-21 -63 -41 -116 -43 -118 -4 -5 -18
39 -61 188 l-15 56 -124 13 -124 13 56 37 c31 21 74 54 96 72 l39 34 -27 135
c-14 75 -26 139 -26 143 0 3 52 -33 115 -80 90 -68 120 -85 138 -80z"/>
<path d="M4754 11799 c-3 -6 -10 -72 -15 -147 -17 -279 -62 -435 -144 -497
-45 -35 -128 -45 -177 -22 -18 8 -49 22 -69 30 -125 52 -532 370 -644 505 -21
25 -32 31 -49 26 -11 -4 -22 -8 -24 -9 -5 -4 64 -107 221 -335 128 -185 223
-363 247 -461 23 -96 25 -132 9 -180 -37 -108 -233 -208 -424 -214 -49 -1 -93
-3 -97 -4 -5 0 -8 -12 -8 -26 0 -27 -1 -27 125 -45 113 -16 270 -56 338 -87
63 -28 107 -72 107 -106 0 -48 -76 -129 -168 -179 -24 -13 -29 -21 -25 -38 5
-18 11 -21 32 -16 14 3 83 14 152 25 131 20 175 34 163 53 -5 7 -36 8 -97 4
l-90 -7 37 38 c70 72 73 156 7 216 -61 55 -187 106 -296 119 l-30 4 28 12
c221 94 303 172 314 302 5 54 -3 92 -48 234 -15 47 -115 222 -194 339 -41 59
-71 107 -68 107 3 0 35 -28 71 -61 96 -88 293 -226 391 -273 142 -68 227 -61
325 24 58 51 125 243 126 357 0 61 16 61 24 0 17 -132 90 -310 141 -343 36
-24 97 -29 131 -11 40 21 102 89 148 165 38 60 55 79 42 46 -11 -29 -46 -272
-46 -321 0 -54 34 -137 70 -168 34 -31 147 -28 190 3 17 13 33 22 34 20 2 -1
0 -34 -3 -71 -11 -113 -1 -103 70 76 21 53 39 101 39 106 0 24 -33 14 -98 -30
-129 -86 -185 -88 -226 -4 -18 37 -19 46 -7 169 12 117 60 334 91 405 9 19 7
26 -7 37 -10 7 -23 14 -30 14 -6 0 -50 -64 -96 -143 -130 -219 -190 -286 -242
-273 -26 7 -97 115 -116 177 -13 44 -47 238 -63 355 -7 49 -16 95 -20 102 -9
15 -43 16 -52 1z"/>
<path d="M11121 11776 c-9 -11 -9 -41 -1 -123 13 -125 29 -251 36 -275 4 -13
-30 -34 -155 -98 -173 -89 -198 -107 -183 -137 9 -16 42 -24 184 -47 95 -16
182 -32 194 -36 22 -9 22 -9 78 -254 19 -82 41 -155 48 -162 10 -11 18 -11 36
-1 18 9 41 55 93 187 39 96 72 176 74 178 2 2 87 -11 189 -28 150 -26 189 -30
201 -20 8 7 15 18 15 25 0 15 -101 137 -191 231 -38 40 -69 75 -69 78 0 4 18
43 41 88 84 167 120 259 108 274 -6 8 -16 14 -22 14 -5 0 -88 -39 -183 -87
l-174 -86 -149 146 c-82 81 -151 147 -154 147 -2 0 -10 -6 -16 -14z m466 -261
c87 44 161 81 165 83 3 2 -22 -53 -58 -121 -35 -68 -71 -141 -79 -161 l-15
-36 120 -127 c65 -70 118 -129 116 -131 -2 -2 -77 9 -165 24 -140 24 -163 26
-175 13 -8 -8 -45 -83 -82 -167 -38 -85 -70 -146 -72 -135 -11 61 -84 339 -92
347 -5 5 -80 19 -166 32 -85 12 -157 24 -159 26 -2 2 57 37 131 78 74 41 142
82 150 91 14 15 12 33 -10 165 -15 82 -29 163 -32 179 -5 26 13 11 129 -104
l135 -134 159 78z"/>
<path d="M8830 11573 c0 -9 29 -75 64 -147 130 -265 406 -700 406 -640 0 31
-304 604 -405 764 -26 42 -65 55 -65 23z"/>
<path d="M13320 11573 c0 -24 133 -236 253 -403 l18 -25 -5 43 c-8 75 -175
343 -241 386 -23 15 -25 15 -25 -1z"/>
<path d="M8587 11344 c-17 -17 -1 -44 110 -187 65 -84 170 -222 235 -307 64
-85 139 -180 167 -210 186 -203 -174 358 -386 602 -85 98 -110 118 -126 102z"/>
<path d="M17905 11306 c-83 -36 -172 -172 -201 -305 -27 -129 -13 -234 29
-218 13 5 15 18 10 74 -7 89 10 166 58 263 44 88 101 140 152 140 29 0 29 -1
24 -39 -10 -76 -52 -137 -154 -224 -36 -30 -41 -45 -17 -54 41 -15 171 107
203 191 27 74 27 103 -4 149 -28 40 -49 45 -100 23z"/>
<path d="M18499 11213 c-79 -39 -196 -161 -242 -252 -38 -76 -47 -125 -24
-134 22 -8 34 5 46 48 28 102 142 237 244 288 65 34 96 32 117 -5 13 -25 13
-31 0 -55 -24 -43 -71 -69 -168 -93 -49 -12 -105 -31 -123 -43 -32 -20 -33
-22 -11 -25 33 -5 232 28 262 43 56 29 102 97 102 150 0 43 -16 72 -52 90 -43
22 -89 18 -151 -12z"/>
<path d="M21428 11189 c-41 -54 -312 -468 -347 -530 -43 -78 -38 -93 13 -37
40 43 256 378 336 520 37 67 36 98 -2 47z"/>
<path d="M21545 11108 c-76 -80 -114 -130 -217 -283 -98 -146 -194 -312 -185
-321 3 -3 24 21 48 53 24 32 68 92 99 133 146 195 313 445 308 461 -2 6 -26
-13 -53 -43z"/>
<path d="M16240 10969 c-172 -139 -244 -230 -117 -149 68 43 229 212 200 209
-4 0 -42 -27 -83 -60z"/>
<path d="M6786 10972 c-9 -15 154 -372 169 -372 9 0 -6 50 -42 145 -68 181
-110 254 -127 227z"/>
<path d="M10215 10409 c-112 -11 -274 -45 -352 -74 -243 -92 -401 -311 -448
-620 -37 -248 -44 -835 -11 -1015 17 -94 65 -212 116 -282 66 -93 137 -137
615 -384 371 -192 447 -251 476 -369 15 -60 14 -630 -1 -685 -12 -43 -51 -83
-105 -106 -54 -23 -186 -23 -240 0 -92 39 -104 68 -119 277 -6 93 -16 172 -21
178 -14 13 -23 13 -363 12 l-304 -1 -30 -31 -31 -30 6 -187 c4 -115 12 -216
22 -261 23 -103 78 -253 117 -319 97 -162 302 -292 536 -339 95 -19 412 -21
527 -4 167 25 325 85 447 169 131 90 226 243 281 452 l30 115 5 340 c6 462
-12 657 -75 813 -89 223 -182 298 -684 552 -400 203 -441 241 -470 434 -13 85
3 502 22 571 25 93 118 139 266 133 106 -4 135 -19 167 -83 16 -32 21 -74 28
-249 7 -162 13 -214 24 -226 22 -22 672 -22 699 0 16 14 17 31 12 210 -8 297
-45 505 -115 649 -39 81 -166 210 -250 254 -177 93 -483 135 -777 106z"/>
<path d="M14520 10414 c-222 -19 -398 -57 -505 -109 -191 -93 -312 -254 -370
-497 -46 -192 -55 -289 -55 -640 0 -356 5 -408 57 -555 41 -114 87 -185 169
-262 88 -82 174 -133 524 -311 299 -152 394 -214 441 -288 51 -81 54 -102 54
-432 l0 -305 -25 -50 c-34 -67 -94 -98 -198 -104 -87 -4 -139 9 -183 46 -51
43 -61 81 -68 251 -5 137 -8 155 -25 168 -16 11 -80 14 -342 14 l-323 0 -28
-24 -28 -24 1 -189 c1 -211 15 -309 65 -449 86 -235 272 -397 534 -464 231
-59 622 -45 827 30 199 73 343 193 421 351 99 203 117 298 124 657 12 627 -34
866 -197 1031 -89 91 -221 171 -540 328 -463 229 -490 254 -510 461 -12 128
-2 451 16 526 19 77 43 109 110 142 59 29 142 36 236 21 99 -17 119 -69 127
-334 5 -167 8 -195 24 -210 17 -17 42 -18 350 -15 295 3 333 6 345 20 11 14
13 71 9 282 -5 308 -14 356 -98 530 -44 90 -63 116 -133 185 -89 88 -142 120
-257 159 -132 44 -395 73 -549 60z"/>
<path d="M16596 10409 c-227 -29 -384 -81 -489 -160 -171 -129 -259 -311 -298
-612 -18 -141 -20 -200 -16 -516 5 -397 8 -418 80 -574 91 -196 142 -235 676
-511 269 -140 331 -178 396 -243 71 -71 77 -101 82 -428 7 -388 -2 -427 -114
-482 -49 -23 -69 -27 -142 -27 -73 0 -93 4 -130 24 -69 40 -80 73 -90 265 -5
106 -13 170 -21 180 -11 13 -59 15 -331 15 -215 0 -326 -4 -343 -11 -44 -20
-49 -52 -43 -267 4 -153 10 -215 26 -280 27 -106 74 -222 119 -290 97 -148
334 -286 554 -322 96 -15 402 -12 519 5 229 34 440 141 550 278 61 75 126 220
160 354 52 207 60 518 24 943 -16 179 -31 249 -76 348 -82 181 -198 268 -674
505 -293 146 -335 171 -399 233 -77 75 -81 93 -81 399 1 328 10 392 64 446 78
78 288 95 365 30 40 -34 48 -78 55 -292 5 -151 10 -211 20 -223 12 -14 51 -16
352 -16 l339 0 13 23 c12 18 13 67 7 282 -8 244 -10 267 -39 380 -43 169 -77
233 -175 331 -119 119 -213 160 -470 205 -117 21 -341 24 -470 8z"/>
<path d="M5400 10400 c-100 -9 -281 -49 -361 -79 -218 -83 -379 -283 -440
-549 -29 -123 -38 -497 -38 -1577 0 -1037 6 -1255 43 -1400 34 -133 108 -282
181 -362 108 -120 283 -215 455 -248 127 -23 376 -38 545 -32 295 12 460 55
632 166 147 95 282 352 313 596 14 117 15 2728 1 2805 -20 100 -59 218 -104
305 -59 115 -172 226 -287 282 -98 46 -208 78 -330 93 -95 11 -480 11 -610 0z
m485 -691 c28 -14 60 -40 72 -58 46 -69 47 -75 47 -1346 1 -1131 0 -1204 -17
-1271 -34 -133 -93 -164 -307 -164 -202 0 -296 34 -328 120 -28 74 -31 201
-32 1340 -2 1140 -1 1177 18 1243 29 100 65 131 187 161 11 2 85 4 165 3 135
-2 149 -4 195 -28z"/>
<path d="M19945 10394 c-186 -25 -329 -64 -428 -116 -133 -71 -248 -218 -308
-392 -62 -178 -62 -184 -60 -1546 1 -679 6 -1293 11 -1365 12 -158 36 -248
100 -382 41 -84 64 -116 127 -181 66 -66 95 -87 188 -134 131 -66 178 -82 310
-105 139 -24 529 -24 662 1 236 43 433 139 543 263 53 60 131 221 164 336 46
158 47 219 44 1597 -4 1405 -1 1323 -58 1490 -99 286 -255 435 -530 506 -102
27 -113 28 -420 30 -173 1 -328 0 -345 -2z m479 -684 c72 -27 100 -57 122
-133 18 -59 19 -118 19 -1257 0 -1276 -1 -1301 -49 -1372 -12 -19 -47 -46 -81
-63 -58 -30 -61 -30 -215 -30 -154 0 -157 0 -216 30 -75 38 -99 82 -114 210
-13 118 -14 2307 0 2389 5 32 16 83 25 112 29 100 107 132 322 133 110 1 142
-2 187 -19z"/>
<path d="M7145 10381 c-49 -21 -46 90 -46 -2108 l1 -2068 21 -17 c20 -17 63
-18 588 -18 311 0 616 4 676 10 211 17 427 102 541 212 76 73 93 98 144 219
79 184 107 432 96 856 -7 293 -20 414 -52 513 -58 174 -146 279 -299 356 -49
25 -91 47 -93 48 -2 2 21 18 50 36 74 45 153 114 187 163 42 62 78 171 98 299
25 163 25 625 -1 788 -42 265 -81 362 -191 475 -102 105 -239 168 -472 216
-91 19 -141 21 -663 25 -315 2 -574 0 -585 -5z m1096 -668 c98 -44 112 -111
107 -515 -3 -283 -4 -295 -27 -346 -31 -69 -88 -118 -155 -132 -29 -7 -116
-10 -201 -8 l-150 3 -3 514 -2 513 192 -4 c168 -4 199 -7 239 -25z m29 -1697
c54 -20 97 -59 119 -106 14 -30 16 -95 19 -495 2 -424 1 -463 -15 -495 -23
-45 -85 -76 -178 -90 -78 -11 -309 -13 -367 -4 l-38 7 0 597 c0 328 3 600 8
604 4 4 97 6 207 4 156 -4 210 -8 245 -22z"/>
<path d="M11744 10379 c-12 -4 -29 -18 -38 -31 -15 -20 -16 -207 -16 -2084 0
-1708 2 -2063 13 -2073 10 -7 259 -13 843 -17 736 -6 831 -5 849 9 19 15 20
29 23 306 3 249 1 294 -13 320 -8 17 -17 32 -18 33 -1 2 -220 5 -487 8 l-485
5 -3 578 -2 577 380 0 c367 0 381 1 400 20 19 19 20 33 20 310 0 355 11 329
-147 331 -60 1 -112 2 -118 4 -5 1 -128 3 -273 3 l-262 2 2 516 3 515 455 -1
c400 0 458 1 478 15 22 16 22 17 22 310 0 291 0 294 -22 319 l-23 24 -780 5
c-429 2 -790 1 -801 -4z"/>
<path d="M18133 10380 c-50 -21 -48 82 -51 -2035 -2 -1089 -1 -2017 3 -2063 6
-70 10 -84 28 -95 16 -9 105 -12 340 -11 287 0 319 2 335 17 16 17 17 141 20
2035 2 1109 0 2040 -3 2068 -11 94 9 89 -342 91 -169 1 -318 -2 -330 -7z"/>
<path d="M21675 10367 l-26 -22 -2 -2068 c-2 -2037 -2 -2069 17 -2083 27 -19
623 -21 650 -1 16 12 17 86 18 1210 1 658 3 1196 4 1194 2 -1 41 -110 87 -242
47 -132 105 -296 130 -365 190 -522 314 -868 339 -944 l29 -89 -1 -351 c-1
-193 -1 -361 -1 -373 2 -52 7 -53 350 -53 249 0 321 3 329 13 13 15 23 2842
13 3665 -6 483 -7 504 -25 518 -16 11 -76 14 -317 14 -277 0 -298 -1 -320 -19
l-24 -19 -5 -813 -5 -812 -84 254 c-77 235 -115 342 -285 804 -35 94 -92 251
-127 350 -76 214 -90 237 -144 247 -22 4 -160 7 -307 7 -263 1 -267 1 -293
-22z"/>
<path d="M3627 9529 c-84 -20 -137 -71 -137 -132 0 -42 48 -83 115 -98 46 -10
68 -9 139 4 120 24 160 39 164 61 3 16 -1 18 -30 13 -194 -33 -281 -32 -313 3
-38 42 26 100 108 100 50 0 122 -24 222 -75 86 -44 124 -52 132 -29 5 16 -142
110 -207 132 -71 24 -145 32 -193 21z"/>
<path d="M24638 9445 c-57 -21 -118 -67 -181 -135 -59 -63 -69 -86 -41 -97 11
-4 25 5 43 28 69 89 180 156 274 166 44 4 56 2 75 -17 72 -69 -70 -138 -198
-96 -37 12 -55 14 -70 6 -23 -12 -27 -30 -6 -30 7 0 27 -7 42 -15 38 -20 182
-20 229 -1 40 17 75 68 75 110 0 19 -11 39 -34 62 -32 32 -38 34 -102 33 -38
0 -86 -7 -106 -14z"/>
<path d="M3826 8985 c-144 -59 -221 -179 -150 -234 33 -26 57 -26 110 -1 53
26 161 137 146 152 -7 7 -35 -8 -90 -45 -90 -62 -119 -74 -135 -58 -17 17 10
57 64 97 51 37 109 61 179 74 l45 8 -37 1 c-47 1 -50 18 -5 24 23 3 18 4 -18
5 -33 1 -70 -7 -109 -23z"/>
<path d="M24578 8919 c-24 -13 -23 -29 1 -29 21 0 35 -16 36 -39 0 -11 18 -15
73 -17 84 -2 125 -16 147 -51 20 -30 12 -73 -13 -73 -25 1 -95 34 -111 53 -20
24 -41 21 -41 -6 0 -28 19 -47 77 -76 74 -37 133 -20 149 43 21 85 -72 166
-190 166 -22 0 -47 6 -55 14 -24 20 -54 27 -73 15z"/>
<path d="M25048 8200 c-9 -6 -56 -59 -104 -118 -48 -59 -92 -113 -99 -120 -9
-10 -36 -2 -131 36 -154 62 -168 66 -189 46 -18 -18 -25 -4 89 -184 36 -58 64
-110 62 -117 -3 -6 -36 -53 -74 -105 -95 -130 -109 -154 -96 -176 17 -27 40
-25 194 18 86 25 146 37 148 31 2 -6 33 -60 70 -122 61 -101 101 -144 118
-126 11 11 22 88 29 205 8 123 9 124 75 136 142 28 265 84 246 114 -3 5 -63
33 -133 61 -71 28 -133 55 -140 59 -9 5 -13 58 -16 178 -4 195 -7 208 -49 184z
m9 -215 l-7 -155 33 -15 c17 -8 84 -35 147 -59 104 -40 112 -44 85 -51 -153
-35 -259 -66 -266 -76 -11 -18 -20 -89 -28 -203 l-6 -99 -53 89 c-29 49 -67
104 -84 123 -35 39 -19 40 -232 -18 l-108 -29 25 26 c13 15 59 74 101 131 66
90 74 106 64 125 -6 11 -32 58 -59 102 -27 45 -49 87 -49 94 0 14 15 10 134
-40 l91 -38 29 26 c15 15 62 71 104 125 41 53 77 97 80 97 3 0 2 -70 -1 -155z"/>
<path d="M3178 8083 c-2 -10 -3 -108 -3 -218 l0 -200 -65 -32 c-36 -18 -105
-49 -155 -69 -49 -19 -105 -43 -122 -51 -34 -16 -43 -43 -20 -60 6 -6 90 -32
185 -59 106 -30 177 -55 182 -64 5 -9 16 -81 25 -160 32 -290 27 -265 55 -265
28 0 66 52 160 223 33 59 63 113 67 120 6 11 48 3 206 -37 109 -28 203 -49
208 -46 12 8 11 42 -2 68 -7 12 -59 87 -117 166 l-105 144 22 45 c12 24 56 98
97 163 61 96 75 125 72 151 -2 25 -8 34 -24 36 -11 2 -97 -27 -190 -63 -93
-37 -176 -69 -185 -72 -12 -3 -34 18 -75 74 -148 202 -209 259 -216 206z m162
-208 c56 -74 105 -135 110 -135 8 0 240 87 303 114 20 9 37 13 37 9 0 -3 -41
-76 -91 -160 l-91 -154 38 -57 c22 -31 73 -102 116 -159 42 -57 74 -103 70
-103 -3 0 -81 21 -173 46 -92 26 -173 44 -181 42 -16 -7 -137 -203 -176 -285
l-27 -58 -7 95 c-4 52 -13 145 -20 205 l-13 110 -175 46 c-125 34 -169 49
-155 54 61 23 218 91 269 117 l58 29 -3 190 c-2 104 -1 189 3 189 4 0 53 -61
108 -135z"/>
<path d="M24127 6768 c-58 -54 -76 -193 -36 -276 41 -84 129 -126 289 -139
l95 -8 -58 -38 c-175 -113 -232 -250 -162 -393 28 -57 127 -168 188 -210 l27
-19 -107 0 c-85 0 -116 -4 -145 -19 -96 -47 -110 -180 -39 -363 16 -40 28 -73
27 -73 0 0 -35 33 -77 73 -80 77 -182 143 -237 153 -118 22 -250 -119 -299
-321 -17 -68 -17 -69 -25 -35 -55 230 -120 320 -231 320 -58 0 -112 -26 -175
-83 -41 -38 -45 -40 -39 -17 22 92 17 191 -14 265 -12 28 -13 21 -21 -80 -9
-121 -30 -233 -59 -310 -25 -65 -24 -75 5 -75 18 0 35 15 69 63 54 75 120 138
176 166 88 46 135 16 189 -119 26 -64 72 -261 72 -306 0 -43 23 -72 47 -58 13
8 20 33 29 100 14 117 37 192 86 286 94 181 181 189 358 34 70 -62 110 -105
230 -250 30 -36 58 -66 62 -66 4 0 12 8 17 18 8 15 -4 48 -54 153 -101 209
-143 364 -116 432 23 58 147 74 294 37 91 -23 128 -27 145 -16 29 17 9 44 -76
103 -165 114 -236 194 -263 295 -7 24 -9 60 -5 81 14 77 183 219 310 261 87
30 104 47 73 78 -11 11 -33 12 -112 4 -115 -11 -264 4 -329 32 -57 26 -102 80
-110 134 -6 39 9 112 41 194 8 21 -13 17 -40 -8z"/>
<path d="M4245 6642 c-7 -25 10 -146 29 -200 39 -110 89 -187 185 -282 114
-114 178 -150 320 -184 55 -13 101 -22 101 -21 0 4 -119 73 -201 119 -177 96
-322 283 -365 471 -9 39 -20 80 -25 93 -10 27 -35 29 -44 4z"/>
<path d="M4154 6277 c-30 -78 77 -259 205 -344 65 -45 161 -79 188 -69 17 7
-10 30 -104 86 -76 45 -192 174 -241 267 -31 60 -42 74 -48 60z"/>
<path d="M12055 5940 c-102 -11 -274 -48 -358 -76 -225 -76 -374 -281 -406
-559 -10 -85 -20 -3120 -10 -3129 8 -8 625 -11 637 -3 9 6 12 149 12 658 l0
649 78 0 c44 0 160 3 260 7 l182 6 2 -659 3 -659 320 0 320 0 5 605 c3 333 5
1030 5 1550 -1 932 -1 946 -22 1040 -40 173 -75 247 -169 355 -57 66 -78 81
-157 120 -186 90 -432 124 -702 95z m260 -611 c51 -14 82 -42 108 -99 21 -44
21 -58 20 -572 -1 -290 -4 -532 -8 -538 -4 -6 -96 -10 -252 -10 l-246 0 6 529
c5 497 6 532 25 573 40 88 111 126 242 127 36 1 83 -4 105 -10z"/>
<path d="M14205 5944 c-330 -51 -461 -98 -565 -203 -93 -95 -149 -208 -197
-406 -15 -63 -17 -178 -21 -1190 -4 -1175 -1 -1285 40 -1460 27 -117 49 -173
98 -244 90 -134 239 -222 440 -262 34 -7 272 -13 621 -16 518 -4 567 -3 583
12 15 15 16 91 14 951 -3 818 -5 936 -18 944 -24 15 -873 13 -888 -2 -9 -9
-12 -88 -12 -294 0 -276 0 -283 21 -289 11 -4 75 -3 141 1 l121 7 -6 -228 c-4
-126 -7 -286 -7 -357 l0 -128 -132 0 c-224 0 -310 40 -339 156 -11 46 -11
1615 0 1994 9 276 14 306 69 363 52 55 206 75 288 38 34 -15 47 -30 70 -77 29
-58 29 -61 32 -269 3 -123 8 -215 14 -222 15 -18 628 -19 646 -1 17 17 16 396
-2 513 -24 159 -103 355 -177 439 -82 92 -205 160 -369 203 -79 20 -124 25
-265 28 -93 2 -183 1 -200 -1z"/>
<path d="M17895 5938 c-113 -12 -252 -51 -337 -94 -146 -73 -268 -233 -317
-415 -39 -142 -46 -239 -46 -604 0 -392 6 -448 60 -560 85 -175 195 -259 642
-493 243 -127 341 -212 373 -320 17 -56 25 -423 12 -520 -19 -133 -42 -159
-154 -169 -39 -4 -73 0 -110 12 -120 39 -149 88 -156 270 -3 70 -9 123 -16
127 -6 4 -143 4 -306 1 l-295 -5 -24 -26 c-23 -25 -23 -27 -19 -211 4 -176 6
-191 35 -276 60 -173 155 -305 281 -389 142 -94 261 -120 542 -120 301 1 480
42 626 142 120 82 223 262 260 454 21 109 31 695 15 859 -21 215 -78 357 -183
454 -65 60 -136 104 -307 189 -128 65 -368 200 -448 253 -117 77 -153 155
-160 348 -6 148 9 327 32 382 36 85 91 115 211 115 86 0 114 -13 143 -70 25
-50 29 -77 37 -272 3 -91 8 -169 12 -174 5 -9 616 -1 632 9 12 8 18 261 9 391
-18 249 -85 418 -214 546 -79 77 -201 131 -368 163 -88 17 -328 18 -462 3z"/>
<path d="M9435 5921 c-157 -6 -160 -6 -172 -31 -10 -20 -12 -399 -10 -1870 l2
-1845 295 -5 c245 -4 330 -1 352 13 2 1 5 292 8 647 l5 645 240 7 c193 5 258
10 329 27 128 31 244 88 316 157 168 160 195 286 210 992 11 535 -2 704 -69
883 -67 178 -217 304 -426 360 -75 21 -106 22 -500 24 -231 1 -492 -1 -580 -4z
m810 -601 c44 -22 53 -32 75 -85 l25 -60 0 -435 c0 -239 -4 -457 -8 -483 -20
-116 -126 -170 -322 -165 l-110 3 0 53 c1 28 2 311 3 628 l2 576 143 -4 c127
-3 147 -6 192 -28z"/>
<path d="M16027 5921 l-469 -6 -19 -24 c-19 -23 -19 -67 -19 -1867 0 -1812 0
-1843 19 -1854 30 -15 1463 -14 1479 2 9 9 12 88 12 294 0 241 -2 283 -15 294
-12 10 -102 12 -418 9 l-402 -4 -3 511 -2 511 97 6 c54 4 207 7 340 7 241 0
242 0 255 23 9 15 14 100 16 290 4 239 2 270 -13 293 l-17 26 -336 -3 -337 -4
-3 442 -2 443 412 2 413 3 3 281 c2 265 1 283 -17 305 l-19 24 -244 1 c-133 0
-454 -2 -711 -5z"/>
<path d="M6751 5836 c-14 -17 -20 -336 -8 -410 7 -41 11 -46 22 -35 9 10 14
70 16 233 4 219 0 248 -30 212z"/>
<path d="M8548 5701 c-62 -40 -186 -132 -243 -181 -47 -41 -140 -150 -114
-135 148 90 370 271 400 327 13 23 11 23 -43 -11z"/>
<path d="M21426 5682 c229 -199 500 -416 541 -435 71 -32 -3 57 -147 177 -87
73 -371 266 -391 266 -8 0 -9 -3 -3 -8z"/>
<path d="M7730 5493 c-323 -239 -537 -393 -602 -432 -32 -19 -60 -41 -63 -49
-9 -24 60 -7 121 29 64 40 342 238 404 288 71 59 79 59 24 0 -184 -195 -337
-399 -350 -466 -11 -58 7 -67 144 -73 l117 -5 -63 -33 c-108 -56 -172 -127
-172 -189 0 -72 60 -180 166 -301 l47 -52 -89 45 c-97 50 -193 73 -257 61
-117 -22 -189 -203 -204 -509 l-6 -139 -39 104 c-58 154 -141 320 -183 367
-46 51 -83 71 -129 71 -57 0 -173 -60 -269 -140 l-89 -73 25 49 c38 75 97 263
97 309 0 38 -21 85 -39 85 -4 0 -6 -21 -3 -48 3 -34 -3 -69 -23 -127 -31 -94
-124 -288 -189 -395 -49 -81 -54 -98 -31 -106 10 -4 63 43 163 144 170 174
277 252 345 252 35 0 46 -6 84 -45 53 -56 128 -208 212 -431 77 -206 81 -214
101 -214 16 0 18 20 23 213 3 134 11 245 22 302 20 106 67 235 96 261 47 42
195 9 334 -75 153 -93 205 -110 219 -74 5 12 -24 48 -107 132 -151 154 -217
253 -217 325 0 72 90 138 310 228 165 67 155 102 -21 72 -100 -17 -320 -16
-326 2 -6 18 86 148 192 274 54 63 185 201 291 306 180 178 192 193 176 207
-16 15 -34 3 -242 -150z"/>
<path d="M8700 5602 c-105 -92 -225 -216 -279 -288 -97 -128 -50 -105 105 50
97 98 251 282 242 291 -2 2 -32 -22 -68 -53z"/>
<path d="M21304 5565 c-7 -17 27 -62 146 -195 42 -47 115 -132 162 -190 97
-117 248 -271 248 -252 0 25 -81 144 -182 269 -103 128 -343 383 -360 383 -5
0 -11 -7 -14 -15z"/>
<path d="M7163 5537 c-11 -12 -69 -94 -128 -182 -168 -249 -230 -324 -265
-324 -35 -1 -106 43 -167 101 -75 73 -147 166 -226 293 -31 50 -63 99 -71 110
-16 19 -16 19 -30 1 -13 -16 -11 -27 15 -100 63 -169 106 -448 81 -531 -8 -28
-15 -32 -93 -52 -77 -21 -172 -32 -647 -73 -62 -5 -117 -12 -122 -15 -23 -14
-10 -43 23 -50 215 -45 517 -134 635 -187 79 -35 92 -35 61 -2 -50 54 -275
142 -484 191 l-80 18 85 3 c223 6 505 41 609 75 46 15 70 64 78 156 6 68 -17
231 -42 304 -7 21 -9 37 -5 35 4 -2 35 -40 69 -85 112 -152 184 -204 285 -207
80 -2 131 35 222 157 42 56 93 130 112 165 20 35 38 59 40 54 1 -5 -18 -74
-43 -153 -50 -156 -66 -239 -46 -239 19 0 49 78 76 197 13 59 40 153 60 208
35 101 42 139 26 149 -4 3 -17 -5 -28 -17z"/>
<path d="M19784 5460 c-16 -5 -40 -20 -51 -32 l-22 -23 97 0 c83 0 104 -4 147
-25 82 -41 191 -158 281 -303 86 -140 140 -205 156 -189 7 7 -6 40 -38 99 -27
48 -51 92 -53 96 -2 5 36 6 84 2 72 -6 87 -5 83 6 -6 18 -79 37 -144 38 -43 1
-54 5 -68 26 -23 34 -20 45 12 45 38 0 102 19 102 30 0 17 -46 22 -101 11 -52
-10 -55 -9 -74 17 -49 66 -139 145 -198 173 -69 32 -162 45 -213 29z"/>
<path d="M20110 5457 c-22 -8 -35 -18 -35 -30 0 -16 12 -18 100 -20 116 -3
175 -24 238 -85 69 -66 90 -130 102 -312 11 -164 53 -295 107 -335 22 -16 19
-17 -62 -10 -120 9 -199 29 -287 72 -110 54 -203 144 -251 242 -37 75 -37 78
-38 206 -1 71 -6 131 -11 132 -5 2 -18 -16 -29 -39 -28 -63 -26 -203 5 -281
74 -187 258 -333 472 -373 135 -26 329 -11 329 26 0 5 -20 23 -45 40 -93 64
-117 126 -135 346 -17 213 -52 294 -162 364 -101 66 -211 87 -298 57z"/>
<path d="M5682 5448 c-31 -31 -28 -35 258 -256 126 -97 150 -115 150 -108 0 3
-22 30 -49 60 -27 30 -52 62 -56 73 -3 10 -63 63 -131 118 -169 134 -158 127
-172 113z"/>
<path d="M20099 5173 c-15 -37 -17 -159 -3 -173 15 -15 34 60 34 134 0 62 -15
81 -31 39z"/>
<path d="M4163 5128 c-4 -7 -9 -83 -10 -168 l-3 -155 -107 -32 c-149 -45 -193
-62 -193 -78 0 -19 6 -22 170 -85 l145 -56 -3 -65 c-4 -72 15 -270 27 -282 17
-18 46 12 123 129 45 68 87 125 94 128 7 3 79 -19 161 -48 203 -73 216 -65
116 76 -36 51 -81 112 -100 135 l-34 43 90 114 c143 184 139 195 -57 146 -75
-18 -144 -35 -154 -38 -11 -3 -34 20 -74 75 -105 142 -134 173 -159 173 -13 0
-27 -6 -32 -12z m147 -173 c40 -60 74 -111 75 -112 1 -2 62 13 136 32 74 19
138 35 142 35 9 0 -5 -21 -113 -168 l-53 -73 21 -29 c26 -35 135 -191 145
-207 4 -6 -14 -1 -40 11 -27 13 -85 36 -130 51 -78 26 -84 27 -107 11 -14 -9
-56 -63 -94 -121 l-69 -105 -6 82 c-4 46 -7 115 -7 154 l0 71 -128 47 c-70 26
-134 51 -140 55 -8 4 38 21 110 40 68 18 129 38 136 43 9 8 12 56 12 176 0
191 -12 190 110 7z"/>
<path d="M8075 4599 c-22 -6 -111 -20 -197 -33 -87 -12 -161 -25 -164 -29 -3
-3 -3 -11 1 -18 11 -16 148 -7 308 22 127 22 160 38 126 60 -16 10 -21 10 -74
-2z"/>
<path d="M21914 4229 c-54 -45 -122 -104 -151 -132 l-52 -50 -153 91 c-183
109 -221 127 -243 118 -25 -9 -17 -38 70 -240 41 -97 75 -180 74 -184 0 -4
-34 -34 -76 -67 -107 -85 -221 -192 -228 -216 -4 -11 -1 -26 5 -34 17 -20 124
-19 259 2 183 29 162 40 230 -117 94 -216 146 -291 172 -249 4 8 25 84 45 169
65 279 56 254 95 262 19 4 110 10 202 14 127 5 171 10 182 21 29 28 28 29
-165 156 -80 52 -156 104 -169 114 l-23 19 36 158 c20 86 36 177 36 202 0 39
-2 44 -23 44 -15 0 -62 -31 -123 -81z m56 -169 c-23 -100 -40 -184 -38 -185 2
-2 80 -53 173 -114 99 -64 162 -111 150 -111 -148 -5 -359 -20 -366 -27 -5 -5
-27 -92 -49 -193 -22 -101 -42 -185 -43 -187 -2 -1 -40 76 -86 172 -46 95 -88
175 -95 178 -6 2 -51 0 -101 -4 -307 -24 -282 -24 -265 -4 8 10 65 60 125 110
157 131 152 124 130 182 -10 27 -44 106 -76 177 -32 71 -58 131 -56 132 1 1
65 -36 142 -83 215 -130 189 -123 249 -65 28 27 90 81 138 120 48 40 90 77 93
83 18 28 12 -13 -25 -181z"/>
<path d="M5888 4166 c-94 -56 -295 -205 -302 -222 -4 -9 -5 -19 -3 -21 17 -16
218 119 312 209 38 37 65 68 59 68 -5 0 -35 -15 -66 -34z"/>
<path d="M24004 4092 c-36 -23 -64 -85 -64 -140 0 -41 37 -129 63 -151 28 -23
19 -37 -35 -61 -96 -41 -261 -14 -347 57 -24 20 -24 20 -8 62 18 45 23 145 8
184 -23 59 -91 78 -131 35 -39 -42 -23 -195 27 -250 15 -17 13 -21 -38 -72
-38 -38 -67 -57 -99 -66 -79 -21 -74 -18 -59 -36 10 -12 24 -15 56 -10 60 8
101 31 150 83 l42 44 42 -31 c47 -34 137 -65 220 -75 63 -8 161 13 216 45 31
18 33 18 85 -2 84 -32 248 -13 248 28 0 11 -16 12 -75 7 -71 -6 -158 8 -170
28 -3 4 5 27 17 51 29 55 37 171 15 214 -35 68 -105 92 -163 56z m-440 -54
c19 -26 21 -101 5 -148 l-12 -33 -18 34 c-26 49 -25 169 2 169 4 0 15 -10 23
-22z m537 3 c33 -27 39 -121 10 -185 -26 -59 -45 -58 -84 6 -66 107 -9 247 74
179z"/>
<path d="M8708 3916 c-54 -19 -125 -63 -143 -88 -23 -33 -19 -84 7 -102 35
-25 61 -19 129 27 100 67 90 92 -14 37 -57 -30 -87 -38 -87 -21 0 14 77 78
138 114 28 17 52 35 52 39 0 12 -40 9 -82 -6z"/>
<path d="M7294 3874 c10 -27 129 -195 162 -231 34 -35 54 -42 54 -18 0 20
-166 242 -190 255 -26 14 -33 12 -26 -6z"/>
<path d="M28113 3680 c-71 -243 -126 -485 -178 -778 -19 -106 -39 -201 -44
-211 -27 -50 -86 -639 -121 -1201 -13 -200 -28 -344 -41 -377 -13 -36 -60
-444 -68 -593 l-6 -125 -116 -7 c-63 -4 -246 -23 -405 -42 -159 -20 -347 -43
-419 -52 -310 -37 -778 -123 -1035 -189 -89 -23 -520 -85 -653 -94 -119 -8
-116 -8 98 -9 237 -2 346 10 590 63 381 83 821 156 1100 184 111 12 464 52
650 75 66 8 146 18 177 21 64 7 62 3 73 130 24 301 71 764 86 849 6 32 14 124
19 205 6 80 14 189 20 241 5 52 14 156 20 230 6 74 22 232 36 350 13 118 29
258 35 310 20 180 109 601 185 871 37 130 44 171 42 226 l-3 68 -42 -145z"/>
<path d="M6516 3758 c-15 -24 -69 -237 -85 -337 -5 -33 -6 -72 -2 -87 l7 -27
17 39 c9 22 21 57 26 79 18 70 71 328 71 342 0 20 -18 15 -34 -9z"/>
<path d="M8689 3497 c-121 -91 -178 -249 -102 -278 66 -25 163 57 197 169 13
39 -11 24 -58 -37 -45 -58 -98 -93 -116 -75 -13 13 30 103 86 181 25 36 44 66
41 69 -2 3 -24 -10 -48 -29z"/>
<path d="M19292 2633 c-5 -16 -24 -75 -42 -133 -63 -208 -176 -381 -316 -487
-43 -32 -140 -89 -217 -128 -143 -71 -172 -94 -149 -117 9 -9 27 -10 80 -1
142 24 352 159 465 298 56 69 149 252 172 340 15 59 33 255 23 255 -3 0 -10
-12 -16 -27z"/>
<path d="M8723 2529 c-6 -8 -27 -45 -46 -84 -88 -176 -228 -311 -454 -441
-148 -84 -138 -94 32 -33 95 35 174 87 279 188 l69 66 -7 -130 c-7 -140 -28
-205 -80 -254 -33 -31 -46 -20 -46 38 0 26 -7 56 -15 67 -14 18 -17 17 -62
-31 -65 -67 -146 -122 -207 -140 -89 -27 -233 -15 -286 24 -14 10 -43 24 -65
31 -53 17 -66 30 -31 30 51 0 109 24 148 61 42 40 46 55 22 101 -15 28 -14 31
6 53 12 13 49 35 83 51 50 22 81 28 160 32 53 3 99 8 102 12 11 17 -29 50 -68
57 -45 7 -87 41 -87 72 0 26 42 58 94 72 60 16 135 5 211 -31 101 -48 105 -13
5 47 -93 57 -202 64 -288 19 -83 -43 -114 -145 -54 -180 11 -6 -7 -16 -66 -36
-87 -29 -147 -68 -164 -106 -8 -18 -7 -33 6 -67 9 -23 16 -46 16 -50 0 -3 -19
-16 -42 -28 -54 -28 -130 -29 -166 -2 -54 39 -92 36 -92 -7 0 -22 185 -164
258 -198 69 -31 183 -46 264 -32 76 12 177 62 228 113 l38 37 6 -35 c8 -40 45
-70 74 -61 35 11 102 89 135 156 30 60 32 72 32 170 0 89 -3 111 -22 146 l-22
42 25 33 c37 49 71 120 85 172 13 52 9 77 -8 56z"/>
<path d="M1 2232 c-1 -127 2 -163 12 -159 15 5 14 245 -1 292 -8 22 -10 -11
-11 -133z"/>
<path d="M19380 2189 c-55 -125 -117 -219 -218 -326 -47 -51 -48 -53 -23 -53
53 0 127 46 175 107 107 136 173 322 133 377 -12 16 -19 4 -67 -105z"/>
<path d="M10450 2030 c-6 -11 -8 -30 -5 -42 9 -42 35 -311 30 -317 -3 -3 -79
-39 -168 -81 -227 -108 -225 -120 38 -175 66 -14 129 -27 141 -30 20 -4 21
-13 27 -142 7 -190 30 -275 70 -260 8 3 43 56 77 119 35 62 78 136 96 164 l32
52 174 -49 c95 -27 179 -47 186 -44 25 9 11 55 -35 112 -129 158 -173 216
-173 226 0 7 28 53 63 103 34 50 75 116 92 147 28 53 29 57 13 73 -16 16 -26
14 -172 -44 -86 -34 -166 -64 -179 -67 -20 -5 -34 6 -92 72 -90 102 -187 203
-197 203 -4 0 -12 -9 -18 -20z m173 -208 c89 -103 89 -104 126 -97 20 4 90 29
156 55 65 27 121 48 123 46 2 -2 -33 -60 -77 -128 -45 -69 -81 -130 -81 -137
0 -7 40 -65 89 -129 50 -64 88 -118 86 -120 -2 -2 -43 5 -92 16 -132 31 -181
36 -198 22 -8 -7 -49 -68 -92 -136 -42 -68 -79 -121 -82 -118 -3 3 -11 75 -18
161 -6 86 -15 159 -20 163 -4 4 -77 23 -162 41 l-155 33 144 68 c79 38 146 70
148 72 5 6 -16 309 -24 332 -3 12 3 8 17 -10 13 -17 64 -77 112 -134z"/>
<path d="M17429 1793 c-9 -10 -15 -65 -19 -168 -3 -84 -8 -156 -12 -160 -4 -4
-70 -24 -148 -45 -78 -20 -147 -43 -153 -49 -28 -28 26 -64 183 -121 47 -17
90 -34 96 -38 8 -5 9 -51 2 -169 -6 -90 -8 -169 -4 -178 9 -26 50 -17 83 18
16 17 63 74 102 125 40 50 74 92 75 92 1 0 64 -25 140 -55 75 -30 146 -55 157
-55 47 0 32 44 -72 207 -33 51 -59 97 -59 104 0 6 35 53 79 106 43 52 87 110
97 128 31 58 15 61 -156 21 -84 -20 -156 -36 -161 -36 -4 0 -33 42 -65 93
-113 181 -140 211 -165 180z m140 -230 c36 -56 59 -83 72 -83 10 0 73 12 140
26 67 14 123 23 126 20 3 -2 -13 -24 -34 -48 -109 -121 -135 -158 -129 -181 4
-19 65 -121 129 -218 17 -26 16 -25 -91 17 -169 68 -156 70 -242 -28 -126
-142 -113 -144 -107 13 3 75 2 140 -1 145 -4 6 -34 21 -67 34 -33 13 -91 38
-129 55 l-69 31 94 23 c52 13 113 31 135 41 47 20 49 24 59 185 9 129 12 136
39 89 12 -22 46 -76 75 -121z"/>
<path d="M0 1762 c0 -16 20 -74 43 -128 24 -55 56 -144 71 -199 15 -55 47
-163 71 -240 24 -77 51 -169 60 -205 36 -144 174 -574 211 -657 14 -34 29 -53
40 -53 16 0 16 1 -2 66 l-6 22 109 -20 c59 -10 124 -23 144 -28 63 -17 330
-50 479 -60 118 -7 175 -16 304 -50 234 -60 440 -126 535 -171 46 -21 98 -39
115 -38 26 0 15 8 -66 47 -156 75 -174 83 -291 118 -245 74 -470 126 -612 140
-203 20 -297 33 -410 54 -55 11 -149 24 -208 29 -60 5 -110 11 -112 13 -11 13
-155 487 -185 608 -6 25 -19 72 -30 105 -10 33 -33 112 -50 175 -52 187 -98
320 -143 409 -45 91 -67 112 -67 63z"/>
<path d="M21810 99 l-45 -40 43 22 c50 27 83 59 61 59 -8 0 -34 -18 -59 -41z"/>
<path d="M21245 99 c-38 -11 -113 -29 -165 -40 -52 -11 -106 -28 -120 -37 -25
-17 -24 -17 55 -19 79 -3 81 -2 200 56 66 33 116 59 110 59 -5 0 -41 -9 -80
-19z"/>
<path d="M23148 75 c-20 -8 -59 -26 -85 -42 l-48 -28 48 -3 c44 -3 54 1 103
38 30 22 54 43 54 45 0 9 -34 4 -72 -10z"/>
</g>
</svg>
